<svg id="visual" viewBox="0 0 900 600" width="900" height="600" xmlns="http://www.w3.org/2000/svg" xmlns:xlink="http://www.w3.org/1999/xlink" version="1.1"><rect x="0" y="0" width="900" height="600" fill="#e6f4f1"></rect><defs><linearGradient id="grad1_0" x1="33.3%" y1="0%" x2="100%" y2="100%"><stop offset="20%" stop-color="#b7c8e8" stop-opacity="1"></stop><stop offset="80%" stop-color="#b7c8e8" stop-opacity="1"></stop></linearGradient></defs><defs><linearGradient id="grad1_1" x1="33.3%" y1="0%" x2="100%" y2="100%"><stop offset="20%" stop-color="#b7c8e8" stop-opacity="1"></stop><stop offset="80%" stop-color="#c3e1eb" stop-opacity="1"></stop></linearGradient></defs><defs><linearGradient id="grad1_2" x1="33.3%" y1="0%" x2="100%" y2="100%"><stop offset="20%" stop-color="#e6f4f1" stop-opacity="1"></stop><stop offset="80%" stop-color="#c3e1eb" stop-opacity="1"></stop></linearGradient></defs><defs><linearGradient id="grad2_0" x1="0%" y1="0%" x2="66.7%" y2="100%"><stop offset="20%" stop-color="#b7c8e8" stop-opacity="1"></stop><stop offset="80%" stop-color="#b7c8e8" stop-opacity="1"></stop></linearGradient></defs><defs><linearGradient id="grad2_1" x1="0%" y1="0%" x2="66.7%" y2="100%"><stop offset="20%" stop-color="#c3e1eb" stop-opacity="1"></stop><stop offset="80%" stop-color="#b7c8e8" stop-opacity="1"></stop></linearGradient></defs><defs><linearGradient id="grad2_2" x1="0%" y1="0%" x2="66.7%" y2="100%"><stop offset="20%" stop-color="#c3e1eb" stop-opacity="1"></stop><stop offset="80%" stop-color="#e6f4f1" stop-opacity="1"></stop></linearGradient></defs><g transform="translate(900, 0)"><path d="M0 432.7C-45.1 421.5 -90.2 410.4 -124.8 384.2C-159.5 358.1 -183.7 316.9 -208.1 286.4C-232.4 255.9 -256.8 236.1 -295.3 214.5C-333.8 193 -386.3 169.7 -411.5 133.7C-436.7 97.7 -434.7 48.8 -432.7 0L0 0Z" fill="#d3ebed"></path><path d="M0 288.4C-30.1 281 -60.1 273.6 -83.2 256.2C-106.3 238.7 -122.5 211.3 -138.7 190.9C-154.9 170.6 -171.2 157.4 -196.9 143C-222.5 128.7 -257.5 113.2 -274.3 89.1C-291.2 65.1 -289.8 32.6 -288.4 0L0 0Z" fill="#b9d5eb"></path><path d="M0 144.2C-15 140.5 -30.1 136.8 -41.6 128.1C-53.2 119.4 -61.2 105.6 -69.4 95.5C-77.5 85.3 -85.6 78.7 -98.4 71.5C-111.3 64.3 -128.8 56.6 -137.2 44.6C-145.6 32.6 -144.9 16.3 -144.2 0L0 0Z" fill="#b7c8e8"></path></g><g transform="translate(0, 600)"><path d="M0 -432.7C36.4 -394 72.7 -355.4 107.2 -330C141.7 -304.6 174.4 -292.5 196.9 -271C219.4 -249.5 231.7 -218.6 271.8 -197.5C312 -176.4 380 -165 411.5 -133.7C442.9 -102.4 437.8 -51.2 432.7 0L0 0Z" fill="#d3ebed"></path><path d="M0 -288.4C24.2 -262.7 48.5 -236.9 71.5 -220C94.5 -203.1 116.3 -195 131.3 -180.7C146.3 -166.3 154.4 -145.8 181.2 -131.7C208 -117.6 253.4 -110 274.3 -89.1C295.3 -68.3 291.9 -34.1 288.4 0L0 0Z" fill="#b9d5eb"></path><path d="M0 -144.2C12.1 -131.3 24.2 -118.5 35.7 -110C47.2 -101.5 58.1 -97.5 65.6 -90.3C73.1 -83.2 77.2 -72.9 90.6 -65.8C104 -58.8 126.7 -55 137.2 -44.6C147.6 -34.1 145.9 -17.1 144.2 0L0 0Z" fill="#b7c8e8"></path></g></svg>